<svg viewBox="0 0 32 32" xmlns="http://www.w3.org/2000/svg"><path d="m11.843 13.5h8.313c-.896-1.205-2.423-2-4.157-2s-3.259.795-4.156 2zm-.81 2a3.936 3.936 0 0 0 -.033.5v1.5h10v-1.5c0-.169-.012-.336-.033-.5zm-.033 5.5c0 .169.012.336.033.5h9.935a4.13 4.13 0 0 0 .032-.5v-1.5h-10zm5 4.5c1.734 0 3.26-.795 4.157-2h-8.313c.896 1.205 2.422 2 4.156 2zm-12.77-10.951a3.609 3.609 0 0 0 -1.955 4.721 3.609 3.609 0 0 0 3.331 2.23h.014c.468 0 .936-.093 1.375-.275a3.608 3.608 0 0 0 1.955-1.955l3.05-7.77zm3.797 4.338a2.605 2.605 0 0 1 -2.421 1.613 2.615 2.615 0 0 1 -1.01-5.02l5.636-2.213zm23.698-2.383a3.609 3.609 0 0 0 -1.955-1.955l-7.77-3.049 3.049 7.77a3.608 3.608 0 0 0 3.33 2.23h.014a3.616 3.616 0 0 0 2.548-1.057c.347-.347.606-.745.783-1.173a3.597 3.597 0 0 0 .001-2.766zm-.924 2.384a2.616 2.616 0 0 1 -1.412 1.414 2.587 2.587 0 0 1 -1.009.199 2.615 2.615 0 0 1 -2.401-1.595l-2.211-5.637 5.618 2.205a2.59 2.59 0 0 1 1.415 1.414 2.618 2.618 0 0 1 0 2zm-16.301-8.388a2 2 0 1 0 .001-3.999 2 2 0 0 0 -.001 3.999zm0-3c.551 0 1 .449 1 1s-.449 1-1 1-1-.449-1-1 .449-1 1-1zm5 3a2 2 0 1 0 .001-3.999 2 2 0 0 0 -.001 3.999zm0-3c.551 0 1 .449 1 1s-.449 1-1 1-1-.449-1-1 .449-1 1-1z"/></svg>