<?xml version="1.0" encoding="UTF-8"?>
<svg id="Layer_2" xmlns="http://www.w3.org/2000/svg" xmlns:xlink="http://www.w3.org/1999/xlink" viewBox="0 0 1285.99 1999.6">
  <defs>
    <style>
      .cls-1, .cls-2 {
        fill: none;
      }

      .cls-3 {
        fill: #0064ff;
      }

      .cls-2 {
        stroke: #002ea1;
        stroke-miterlimit: 10;
        stroke-width: 4.33px;
      }

      .cls-4 {
        fill: url(#linear-gradient);
      }

      .cls-5 {
        clip-path: url(#clippath-1);
      }

      .cls-6 {
        clip-path: url(#clippath-3);
      }

      .cls-7 {
        clip-path: url(#clippath-4);
      }

      .cls-8 {
        clip-path: url(#clippath-2);
      }

      .cls-9 {
        fill: #002ea1;
      }

      .cls-10 {
        fill: #ffda50;
      }

      .cls-11 {
        clip-path: url(#clippath);
      }
    </style>
    <clipPath id="clippath">
      <rect class="cls-1" width="1285.99" height="1999.6"/>
    </clipPath>
    <linearGradient id="linear-gradient" x1="1973.97" y1="2509.58" x2="2670.69" y2="1734.72" gradientUnits="userSpaceOnUse">
      <stop offset="0" stop-color="#0063ff"/>
      <stop offset="1" stop-color="#002da2"/>
    </linearGradient>
    <clipPath id="clippath-1">
      <circle class="cls-1" cx="131.39" cy="1609.51" r="92.36"/>
    </clipPath>
    <clipPath id="clippath-2">
      <circle class="cls-1" cx="281.73" cy="1437.76" r="92.36"/>
    </clipPath>
    <clipPath id="clippath-3">
      <circle class="cls-1" cx="506.64" cy="1309.19" r="92.36"/>
    </clipPath>
    <clipPath id="clippath-4">
      <circle class="cls-1" cx="732.44" cy="1211.29" r="92.36"/>
    </clipPath>
  </defs>
  <g id="Layer_1-2" data-name="Layer_1">
    <g class="cls-11">
      <g>
        <path class="cls-3" d="M1376.15,1773.7c33.33-78.79,74.54-154.74,122.51-225.74,47.42-70.18,101.85-136.16,161.79-196.1,59.94-59.94,125.92-114.38,196.1-161.79,71-47.97,146.95-89.19,225.74-122.51,164.04-69.38,337.97-104.56,516.95-104.56s352.92,35.18,516.95,104.56c78.79,33.32,154.74,74.54,225.74,122.51,70.18,47.41,136.16,101.85,196.1,161.79,59.94,59.94,114.38,125.92,161.79,196.1,47.97,71,89.18,146.95,122.51,225.74,32.95,77.9,58.18,158.03,75.6,239.88h188.32c-1.7-9.2-3.49-18.37-5.36-27.52-19.89-97.19-49.56-192.79-88.2-284.14-37.92-89.65-84.85-176.11-139.47-256.97-54.08-80.04-116.17-155.31-184.57-223.7-68.39-68.39-143.66-130.49-223.7-184.57-80.86-54.63-167.32-101.55-256.97-139.47-91.35-38.64-186.95-68.32-284.14-88.2-99.63-20.39-202.11-30.72-304.6-30.72s-204.97,10.34-304.6,30.72c-97.19,19.89-192.79,49.56-284.14,88.2-89.65,37.92-176.11,84.85-256.97,139.47-80.04,54.08-155.31,116.17-223.7,184.57-68.39,68.39-130.49,143.65-184.57,223.7-54.63,80.86-101.55,167.32-139.47,256.97-38.64,91.35-68.32,186.95-88.2,284.14-1.87,9.15-3.66,18.33-5.36,27.52h188.32c17.42-81.85,42.65-161.98,75.6-239.88Z"/>
        <path class="cls-4" d="M1117.6,1986.06c19.89-97.19,49.56-192.79,88.2-284.14,37.92-89.65,84.85-176.11,139.47-256.97,54.08-80.04,116.17-155.31,184.57-223.7,68.39-68.39,143.65-130.49,223.7-184.57,80.86-54.63,167.32-101.55,256.97-139.47,91.35-38.64,186.95-68.32,284.14-88.2,99.63-20.39,202.11-30.72,304.6-30.72s204.97,10.34,304.6,30.72c97.19,19.89,192.79,49.56,284.14,88.2,89.65,37.92,176.11,84.85,256.97,139.47,80.04,54.08,155.31,116.17,223.7,184.57,68.39,68.39,130.49,143.65,184.57,223.7,54.63,80.86,101.55,167.32,139.47,256.97,38.64,91.35,68.32,186.95,88.2,284.14,1.87,9.15,3.66,18.33,5.36,27.52h187.5c-3.55-21.62-7.52-43.15-11.9-64.56-22.33-109.13-55.66-216.48-99.04-319.07-42.57-100.64-95.23-197.68-156.54-288.42-60.66-89.79-130.31-174.2-207.01-250.91-76.71-76.71-161.12-146.35-250.91-207.01-90.74-61.3-187.78-113.97-288.42-156.54-102.58-43.39-209.93-76.71-319.07-99.04-111.79-22.87-226.73-34.47-341.63-34.47s-229.85,11.6-341.63,34.47c-109.13,22.33-216.48,55.66-319.07,99.04-100.64,42.57-197.68,95.23-288.42,156.54-89.79,60.66-174.2,130.31-250.91,207.01-76.7,76.7-146.35,161.12-207.01,250.91-61.3,90.74-113.97,187.78-156.54,288.42-43.39,102.59-76.71,209.94-99.04,319.07-4.38,21.41-8.34,42.94-11.9,64.55h187.5c1.7-9.2,3.49-18.37,5.36-27.52Z"/>
        <path class="cls-3" d="M936.63,1949.03c22.33-109.13,55.65-216.48,99.04-319.07,42.57-100.64,95.23-197.68,156.54-288.42,60.66-89.79,130.31-174.2,207.01-250.91,76.7-76.7,161.12-146.35,250.91-207.01,90.74-61.3,187.78-113.97,288.42-156.54,102.58-43.39,209.93-76.71,319.07-99.04,111.78-22.87,226.73-34.47,341.63-34.47s229.85,11.6,341.63,34.47c109.13,22.33,216.48,55.66,319.07,99.04,100.64,42.57,197.68,95.24,288.42,156.54,89.78,60.66,174.2,130.31,250.91,207.01,76.7,76.7,146.35,161.12,207.01,250.91,61.3,90.74,113.97,187.78,156.54,288.42,43.39,102.58,76.71,209.93,99.04,319.07,4.38,21.41,8.34,42.94,11.9,64.56h186.94c-5.03-34.07-10.99-67.95-17.87-101.59-24.78-121.08-61.75-240.18-109.89-354-47.21-111.62-105.62-219.24-173.6-319.87-67.24-99.53-144.44-193.1-229.46-278.11-85.02-85.02-178.59-162.22-278.12-229.46-100.63-67.98-208.25-126.39-319.87-173.6-113.81-48.14-232.91-85.11-353.99-109.89-123.95-25.36-251.35-38.22-378.66-38.22s-254.72,12.86-378.66,38.22c-121.08,24.78-240.18,61.75-353.99,109.89-111.63,47.21-219.25,105.62-319.87,173.6-99.53,67.24-193.1,144.44-278.12,229.46-85.02,85.02-162.22,178.59-229.46,278.12-67.98,100.63-126.39,208.25-173.6,319.87-48.14,113.82-85.11,232.92-109.89,353.99-6.88,33.63-12.84,67.52-17.87,101.59h186.94c3.55-21.62,7.52-43.14,11.9-64.55Z"/>
        <path class="cls-3" d="M131.39,1517.15v184.72c225.01,0,420.52,126.22,519.64,311.71h202.75c-111.43-290.33-392.84-496.43-722.39-496.43Z"/>
        <g>
          <circle class="cls-10" cx="131.39" cy="1609.51" r="92.36"/>
          <g class="cls-5">
            <g>
              <path class="cls-2" d="M39.03,1590.22c55.15,13.69,111.62-14.51,134.27-65.66"/>
              <path class="cls-2" d="M225.07,1630.44c-55.15-13.69-111.62,14.51-134.27,65.66"/>
            </g>
          </g>
        </g>
        <path class="cls-9" d="M1014.23,1917.62c-24.03-56.82-53.77-111.61-88.38-162.84-34.25-50.7-73.58-98.37-116.9-141.69-43.32-43.32-90.99-82.65-141.69-116.9-51.23-34.61-106.02-64.35-162.84-88.38-66.23-28.01-134.73-48.29-204.9-60.71l-33.73,181.69c270.15,47.33,492.06,234.84,587.98,484.79h195.14c-9.81-32.46-21.36-64.47-34.68-95.96Z"/>
        <g>
          <circle class="cls-10" cx="281.73" cy="1437.76" r="92.36"/>
          <g class="cls-8">
            <g>
              <path class="cls-2" d="M280.95,1532.11c2.6-56.77-36.15-106.6-90.75-118.76"/>
              <path class="cls-2" d="M283.85,1341.79c-2.6,56.77,36.15,106.6,90.75,118.76"/>
            </g>
          </g>
        </g>
        <path class="cls-3" d="M1184.36,1845.66c-28.68-67.8-64.16-133.17-105.44-194.29-40.83-60.44-87.72-117.27-139.35-168.9-51.63-51.63-108.45-98.51-168.89-139.34-61.12-41.29-126.49-76.77-194.29-105.45-11.69-4.95-23.45-9.69-35.26-14.23l-67.69,171.89c10.38,3.97,20.72,8.12,30.99,12.47,56.82,24.03,111.61,53.77,162.84,88.38,50.7,34.25,98.37,73.58,141.69,116.9,43.32,43.32,82.65,90.99,116.9,141.69,34.61,51.23,64.35,106.02,88.38,162.84,13.32,31.49,24.87,63.51,34.68,95.96h191.59c-14.25-57.1-32.98-113.16-56.15-167.92Z"/>
        <g>
          <circle class="cls-10" cx="506.64" cy="1309.19" r="92.36"/>
          <g class="cls-6">
            <g>
              <path class="cls-2" d="M454.13,1387.58c33.37-46,28.38-108.92-10.55-149.09"/>
              <path class="cls-2" d="M561.15,1230.18c-33.37,46-28.38,108.92,10.55,149.09"/>
            </g>
          </g>
        </g>
        <path class="cls-9" d="M1354.48,1773.7c-33.32-78.79-74.54-154.74-122.51-225.74-47.42-70.18-101.85-136.16-161.79-196.1-59.94-59.94-125.92-114.38-196.1-161.79-31.09-21-63.13-40.71-95.93-59.03l-91.75,160.34c28.83,16.03,56.98,33.31,84.28,51.75,60.44,40.83,117.27,87.72,168.89,139.34,51.63,51.63,98.51,108.45,139.35,168.9,41.29,61.12,76.77,126.48,105.44,194.29,23.16,54.76,41.89,110.82,56.15,167.92h189.58c-17.42-81.84-42.65-161.98-75.6-239.88Z"/>
        <g>
          <circle class="cls-10" cx="732.44" cy="1211.29" r="92.36"/>
          <g class="cls-7">
            <g>
              <path class="cls-2" d="M638.66,1200.85c56.2,8.4,109.74-25.04,127.43-78.11"/>
              <path class="cls-2" d="M827.68,1223.23c-56.2-8.4-109.74,25.04-127.43,78.11"/>
            </g>
          </g>
        </g>
      </g>
    </g>
  </g>
</svg>